<?xml version="1.0" encoding="iso-8859-1"?>
<!-- Generator: Adobe Illustrator 16.0.0, SVG Export Plug-In . SVG Version: 6.00 Build 0)  -->
<!DOCTYPE svg PUBLIC "-//W3C//DTD SVG 1.1//EN" "http://www.w3.org/Graphics/SVG/1.1/DTD/svg11.dtd">
<svg xmlns="http://www.w3.org/2000/svg" xmlns:xlink="http://www.w3.org/1999/xlink" version="1.1" id="Capa_1" x="0px" y="0px" width="512px" height="512px" viewBox="0 0 964.801 964.801" style="enable-background:new 0 0 964.801 964.801;" xml:space="preserve">
<g>
	<g>
		<path d="M239.85,754.5c46.1,0,90.3-13.199,128.1-37.801C366.75,705.4,366.05,694,366.05,682.5c0-2.6,0-5.199,0.1-7.801    c0.4-18.299,2.4-36.299,6-54c4.101-20.398,10.3-40.398,18.5-59.799c15.7-37.201,38.2-70.6,66.9-99.201    c1.399-1.399,2.899-2.8,4.3-4.199l-197.5-197.4l141.6-141.6C437.25,87.2,478.85,70,523.15,70c44.299,0,85.9,17.2,117.199,48.5    c31.301,31.3,48.5,72.9,48.5,117.2c0,44.3-17.199,85.9-48.5,117.2l-23.6,23.6c18.1-3.6,36.5-5.6,55.199-6    c2.201,0,4.4-0.1,6.602-0.1c12.299,0,24.6,0.7,36.699,2.1c28.4-39.7,43.699-87.1,43.699-136.8c0-63-24.5-122.1-69-166.7    C645.449,24.5,586.25,0,523.25,0c-63,0-122.1,24.5-166.7,69L73.25,352.2c-44.5,44.5-69,103.7-69,166.7c0,63,24.5,122.1,69,166.699    C117.75,730,176.95,754.5,239.85,754.5z" fill="#91DC5A"/>
		<path d="M691.35,400.7c-4.299-0.199-8.6-0.3-13-0.3c-13.199,0-26.1,0.9-38.799,2.7c-23.602,3.2-46.201,9.4-67.602,18.1    c-33.199,13.5-63.299,33.2-88.799,57.7c-28.399,27.2-51.1,60.299-66.2,97.299c-8.699,21.4-14.899,44-18.1,67.602    c-1.7,12.699-2.7,25.6-2.7,38.799c0,4.201,0.101,8.301,0.3,12.5c2.7,62.301,25.601,119.301,62.301,164.701l396.8-396.8    C810.25,426.4,753.35,403.5,691.35,400.7z" fill="#91DC5A"/>
		<path d="M897.949,505.4L501.15,902.199c48.4,39.102,110.1,62.602,177.199,62.602c155.9,0,282.201-126.301,282.201-282.201    C960.551,615.5,937.051,553.801,897.949,505.4z" fill="#91DC5A"/>
	</g>
</g>
<g>
</g>
<g>
</g>
<g>
</g>
<g>
</g>
<g>
</g>
<g>
</g>
<g>
</g>
<g>
</g>
<g>
</g>
<g>
</g>
<g>
</g>
<g>
</g>
<g>
</g>
<g>
</g>
<g>
</g>
</svg>
